<svg width="1920" height="1080" viewBox="0 0 1920 1080" fill="none" xmlns="http://www.w3.org/2000/svg">
<rect x="958.581" y="-1086" width="2.8377" height="3252" fill="#EDEDED"/>
<rect x="-666" y="541.419" width="2.8377" height="3252" transform="rotate(-90 -666 541.419)" fill="#EDEDED"/>
<rect x="-188.752" y="1690.76" width="2.8377" height="3252" transform="rotate(-135 -188.752 1690.76)" fill="#EDEDED"/>
<rect x="148.229" y="1948.87" width="2.8377" height="3252" transform="rotate(-150 148.229 1948.87)" fill="#EDEDED"/>
<rect x="540.531" y="2110.96" width="2.8377" height="3252" transform="rotate(-165 540.531 2110.96)" fill="#EDEDED"/>
<rect x="1382.21" y="2110.23" width="2.8377" height="3252" transform="rotate(165 1382.21 2110.23)" fill="#EDEDED"/>
<rect x="1774.23" y="1947.45" width="2.8377" height="3252" transform="rotate(150 1774.23 1947.45)" fill="#EDEDED"/>
<rect x="2368.87" y="1351.77" width="2.8377" height="3252" transform="rotate(120 2368.87 1351.77)" fill="#EDEDED"/>
<rect x="2530.96" y="959.469" width="2.8377" height="3252" transform="rotate(105 2530.96 959.469)" fill="#EDEDED"/>
<rect x="2530.23" y="117.789" width="2.8377" height="3252" transform="rotate(75 2530.23 117.789)" fill="#EDEDED"/>
<rect x="2367.45" y="-274.229" width="2.8377" height="3252" transform="rotate(60 2367.45 -274.229)" fill="#EDEDED"/>
<rect x="-190.759" y="-608.751" width="2.8377" height="3252" transform="rotate(-45 -190.759 -608.751)" fill="#EDEDED"/>
</svg>
