<svg width="352" height="352" viewBox="0 0 352 352" fill="none" xmlns="http://www.w3.org/2000/svg">
<path fill-rule="evenodd" clip-rule="evenodd" d="M171.011 86.462V51.9595L181.011 60.0088V90H190.006L198.042 62.0171L208.271 60.9985L200.541 90L197.865 100H190.006H181V107.342H195.82L193.404 116.342H181V122.5L191.801 122.5L189.388 131.5H181V146.415C193.557 148.521 203.469 158.429 205.582 170.983L220.517 170.983V162.594L229.517 160.176L229.517 170.983H235.674V158.576L244.674 156.155V170.983H252.016V162.01V154.151L262.016 151.475L291.018 143.746L289.999 153.975L262.016 162.01V170.983H265.554V170.995H300.057L292.008 180.995H262.016V189.99L289.999 198.025L291.018 208.254L262.016 200.524L252.016 197.848V189.99V180.983H244.674V195.803L235.674 193.387V180.983H229.517L229.517 191.784L220.517 189.371V180.983H205.588C203.488 193.543 193.586 203.459 181.033 205.58V220.5H189.422L191.84 229.5L181.033 229.5V235.657H193.44L195.861 244.657H181.033V252H190.006H197.865L200.541 262L208.271 291.001L198.041 289.982L190.006 262H181.033V265.538H181.022V300.04L171.022 291.991V262H162.027L153.992 289.982L143.762 291.001L151.492 262L154.168 252H162.027H171.033V244.657H156.213L158.629 235.657H171.033V229.5L160.232 229.5L162.645 220.5H171.033V205.591C158.46 203.496 148.533 193.582 146.418 181.016H131.516V189.406L122.516 191.823L122.516 181.016H116.359V193.423L107.359 195.844V181.016H100.017V189.989V197.848L90.0168 200.524L61.0154 208.254L62.0339 198.025L90.0168 189.989V181.016H86.4788V181.005H51.9763L60.0257 171.005H90.0168L90.0168 162.01L62.0339 153.975L61.0154 143.746L90.0168 151.475L100.017 154.151V162.01L100.017 171.016H107.359L107.359 156.197L116.359 158.612V171.016H122.516L122.516 160.216L131.516 162.628V171.016L146.412 171.016C148.514 158.446 158.432 148.523 171 146.415V131.5H162.611L160.193 122.5L171 122.5V116.342H158.593L156.172 107.342H171V100H162.027H154.168L151.492 90L143.762 60.9985L153.992 62.0171L162.027 90H171V86.462H171.011ZM196 176C196 187.046 187.046 196 176 196C164.954 196 156 187.046 156 176C156 164.954 164.954 156 176 156C187.046 156 196 164.954 196 176Z" fill="black"/>
<path opacity="0.1" fill-rule="evenodd" clip-rule="evenodd" d="M235.79 109.148L260.187 84.7506L261.566 97.5134L240.359 118.72L246.72 125.081L272.189 110.976L280.142 117.488L254.169 132.53L245.206 137.709L239.649 132.152L233.28 125.783L228.089 130.975L238.568 141.454L230.496 146.11L221.725 137.339L217.371 141.693L225.008 149.33L216.938 153.988L211.007 148.057L200.46 158.604C207.85 168.972 207.853 182.986 200.47 193.358L211.03 203.919L216.962 197.987L225.036 202.641L217.394 210.283L221.748 214.636L230.521 205.864L238.597 210.515L228.112 221L233.304 226.192L239.649 219.847L245.206 214.29L254.169 219.469L280.142 234.511L272.188 241.023L246.72 226.918L240.375 233.263L242.877 235.765L242.869 235.773L267.266 260.17L254.503 261.549L233.296 240.342L226.935 246.703L241.041 272.171L234.528 280.125L219.486 254.152L214.307 245.189L219.864 239.632L226.233 233.263L221.041 228.071L210.562 238.551L205.906 230.479L214.677 221.708L210.323 217.354L202.686 224.991L198.028 216.921L203.959 210.99L193.403 200.433C183.037 207.83 169.023 207.839 158.648 200.463L148.097 211.013L154.03 216.945L149.375 225.019L141.733 217.377L137.38 221.731L146.152 230.504L141.501 238.58L131.016 228.095L125.824 233.287L132.169 239.632L137.726 245.189L132.547 254.152L117.505 280.125L110.993 272.171L125.098 246.703L118.753 240.358L116.251 242.859L116.243 242.851L91.846 267.248L90.4667 254.486L111.674 233.279L105.313 226.918L79.8446 241.023L71.8913 234.511L97.8641 219.469L106.827 214.29L112.384 219.847L118.753 226.216L123.945 221.024L113.465 210.545L121.537 205.889L130.309 214.66L134.662 210.306L127.025 202.669L135.095 198.011L141.026 203.942L151.569 193.4C144.16 183.028 144.15 168.998 151.54 158.617L141.003 148.08L135.071 154.013L126.997 149.358L134.639 141.716L130.285 137.363L121.512 146.135L113.436 141.484L123.921 130.999L118.729 125.807L112.384 132.152L106.827 137.709L97.8642 132.53L71.8913 117.489L79.8447 110.976L105.313 125.081L111.658 118.736L109.157 116.234L109.165 116.226L84.7676 91.829L97.5304 90.4497L118.737 111.657L125.098 105.296L110.993 79.8276L117.505 71.8743L132.547 97.8471L137.726 106.81L132.169 112.367L125.8 118.736L130.992 123.928L141.471 113.448L146.127 121.52L137.356 130.292L141.71 134.645L149.347 127.008L154.005 135.078L148.074 141.009L158.607 151.542C168.981 144.14 183.011 144.137 193.389 151.533L203.936 140.986L198.004 135.054L202.658 126.98L210.3 134.622L214.654 130.268L205.881 121.495L210.532 113.419L221.017 123.904L226.209 118.712L219.864 112.367L214.307 106.81L219.486 97.8471L234.528 71.8743L241.041 79.8277L226.935 105.296L233.28 111.641L235.782 109.139L235.79 109.148ZM190.147 190.13C182.336 197.941 169.673 197.941 161.863 190.13C154.052 182.32 154.052 169.656 161.863 161.846C169.673 154.035 182.336 154.035 190.147 161.846C197.957 169.656 197.957 182.32 190.147 190.13Z" fill="black"/>
</svg>
